<svg xmlns="http://www.w3.org/2000/svg" viewBox="0 0 256 256" width="32" height="32">
  <rect width="256" height="256" rx="48" fill="#ECFDF5"/>
  <path fill="#10B981" d="M232,48a16,16,0,0,0-16-16H184a59.93,59.93,0,0,0-50.7,28H80A56.06,56.06,0,0,0,24,116v8a8,8,0,0,0,16,0v-8a40,40,0,0,1,40-40H124.5A59.86,59.86,0,0,0,120,96a60.07,60.07,0,0,0,60,60h12V210.66l-46.34-46.32a8,8,0,0,0-11.32,11.32L168,216H72a8,8,0,0,0,0,16H192a16,16,0,0,0,16-16V155.43A60,60,0,0,0,232,108V60a8,8,0,0,0,1.41-.16C236.71,57.62,232,52.4,232,48ZM180,140a44.05,44.05,0,0,1-44-44,44.05,44.05,0,0,1,44-44h36V108A44.05,44.05,0,0,1,180,140Zm12-72a12,12,0,1,1-12-12A12,12,0,0,1,192,68Z"/>
</svg>
